<svg xmlns="http://www.w3.org/2000/svg" viewBox="0 0 113.63 230.55"><path d="M0 230.54h106.25v-24.82H35.98l61.28-94.77a95.71 95.71 0 0011.67-23.26 96 96 0 004.25-39.19 58.91 58.91 0 00-5.71-19.59 49 49 0 00-10.46-14.64 50.68 50.68 0 00-12.64-8.63A56.25 56.25 0 0066.13.54a66.78 66.78 0 00-17 0c-5.5.73-12.69 1.66-20.2 6.08-9.69 5.71-14.4 13.93-17.5 19.35a66.38 66.38 0 00-7.8 22.3 75.92 75.92 0 000 26.2h28.72a65.23 65.23 0 011.69-20.82c2.07-8.34 4.74-19.06 14-24.52a21.46 21.46 0 0114.45-2.86c7.34 1.28 11.67 6.51 13.37 8.57 8.56 10.34 7.21 24 6.56 30.61a65.57 65.57 0 01-6.07 21.8C66.68 107.13 38.93 151.78 0 208.66z" fill="#f1f1f1" data-name="Слой 2"/></svg>