<svg xmlns="http://www.w3.org/2000/svg" viewBox="0 0 121.52 228.62"><path d="M115.41 139c-4.16-.05-8.33.05-12.5 0-5.16-.1-5.55-.54-5.71-5.83V11.13c0-2.17 0-4.33-.11-6.5C96.9 1.42 95.52 0 92 .06 83 .27 74 .4 65 0c-4.72-.21-7.2 1.38-9.1 5.71Q29 67.05 2.17 128.42a20.3 20.3 0 00-2.07 7.67c-.17 9.66 0 19.33-.1 29 0 2.58 1.27 3.58 3.52 3.94a38.51 38.51 0 006 .26h48.49c6.51 0 6.84.34 6.85 6.72v45c0 2.63-.36 5.39 1.64 7.61h29c2.12-2.36 1.73-5.28 1.74-8.06 0-15.11-.05-30.23.06-45.34 0-5.29.5-5.68 5.68-5.82 3-.09 6 .06 9-.05 3.25-.12 6.71.69 9.55-1.73v-27c-1.75-1.62-3.95-1.62-6.12-1.62zm-52.87 1.7c-9.5-.14-19-.1-28.48 0-3 0-3.83-.91-2.75-3.89C38.06 118.18 44.7 99.56 51.37 81q6.06-16.92 12.13-33.82c.66-1.84 1.3-3.69 1.94-5.54l1.09.1v64.39c0 10.16-.09 20.32 0 30.48.08 3.02-.94 4.11-3.99 4.06z" fill="#f2f2f2" data-name="Слой 2"/></svg>