<svg xmlns="http://www.w3.org/2000/svg" viewBox="0 0 112.49 237.06"><g data-name="Слой 2"><path d="M66.86.99v-1" fill="#f7f7f7"/><path d="M112.14 165.04v10c-.61 16-3.39 31.31-13.63 44.37-7.72 9.85-18.26 14.51-30.21 16.58a70.74 70.74 0 01-36.25-3.11c-12.81-4.53-21.65-13.35-26.7-25.78-4.3-10.57-5.67-21.76-5.29-33.19.1-3.17 1.27-4 4.17-3.91 7.17.14 14.34.22 21.5 0 3.6-.12 4.3 1.26 4.52 4.61.6 8.88.67 17.94 5.18 26.08 3.71 6.68 9.41 10.09 17 10.37 2.16.08 4.33 0 6.5 0 8.78.09 15.66-3.88 18.43-11.92 6.56-19 7.41-38.38-1.34-57.1-4.22-9-12.25-13.57-22.05-13.82-5-.12-6.23-1.65-5.93-6.31.39-6 .1-12 .1-18 0-6.78 0-6.67 6.58-6.9 4.83-.17 9.64-.91 13.91-3.31a22.23 22.23 0 0011-13.55c3.72-12.68 3.15-25.21-.87-37.64-2.43-7.51-7.75-11.46-15.63-12.77a35.85 35.85 0 00-17.17.9c-9.41 3-11.81 11.12-13.7 19.28a111.07 111.07 0 00-2.02 16.71c-.19 2.61-1.09 3.47-3.61 3.44-7.67-.09-15.33-.06-23 0-2.14 0-3.45-.47-3.48-3C-.08 51 1.65 35.53 12.24 22.39 21.46 10.9 33.66 5.64 48.13 5.03h16c24.09.15 42.49 16.34 46.88 41.8 2.23 12.83 2.23 25.77-2.07 38.28s-12.7 21.42-25.29 26.23a24.79 24.79 0 00-2.26 1.19c23.17 10.23 29.68 29.82 30.75 52.51z" fill="#f2f2f2"/></g></svg>