<?xml version="1.0" encoding="utf-8"?>
<!-- Generator: Adobe Illustrator 21.1.0, SVG Export Plug-In . SVG Version: 6.00 Build 0)  -->
<svg version="1.1" id="Слой_1" xmlns="http://www.w3.org/2000/svg" xmlns:xlink="http://www.w3.org/1999/xlink" x="0px" y="0px"
  viewBox="0 0 39.6 50.4" style="enable-background:new 0 0 39.6 50.4;" xml:space="preserve">
  <style type="text/css">
    .st0{fill:#2E368F;}
  </style>
  <path class="st0" d="M20,0.2h-0.2L0.1,2.3v36.2l19.7,11.7l19.7-11.7V2.3C39.5,2.3,20,0.2,20,0.2z M37,37L19.8,47.2L2.6,37V22.2
    l17.1,10.2v1.8L8,27.2V29l11.8,7.1V38L8,31v1.8l11.8,7l11.9-7.1v-7.6l5.3-3.2V37z M36.9,20l-4.7,2.8L30,24.1L19.7,18v1.8l8.8,5.3
    h-0.1l-0.2,0.1l-1.3,0.7l-7.3-4.3v1.8l5.8,3.4L24,27.7l-4.3-2.6v1.8l2.9,1.7l-2.9,1.7l-17-10.1l17-10.2C19.7,10,36.9,20,36.9,20z
    M37,18.2L19.7,8L2.6,18.2V4.6l17.2-1.8L37,4.6C37,4.6,37,18.2,37,18.2z"/>
</svg>
